<?xml version="1.0" encoding="UTF-8"?><svg id="a" xmlns="http://www.w3.org/2000/svg" width="1920" height="850" viewBox="0 0 1920 850"><defs><style>.b{fill:#f0ece7;}</style></defs><rect class="b" width="1920" height="850"/><g><path d="M79.328,216.962c-6.781-7.079-10.17-16.799-10.17-29.16V116.522c0-15.359,3.06-26.938,9.18-34.74,6.12-7.799,15.719-11.7,28.8-11.7,11.399,0,20.579,3.122,27.54,9.36,6.958,6.241,10.44,15.241,10.44,27v26.64h-30.78v-22.86c0-4.438-.54-7.498-1.62-9.18-1.08-1.679-2.942-2.52-5.58-2.52-2.762,0-4.652,.962-5.67,2.88-1.021,1.921-1.53,4.742-1.53,8.46v77.58c0,4.081,.599,7.051,1.8,8.91,1.198,1.862,2.998,2.79,5.4,2.79,4.798,0,7.2-3.898,7.2-11.7v-27.9h31.14v29.16c0,25.92-13.022,38.88-39.06,38.88-11.281,0-20.312-3.538-27.09-10.62Z"/><path d="M158.168,217.413c-3.78-6.778-5.67-16.47-5.67-29.07,0-10.319,1.35-18.239,4.05-23.76,2.7-5.518,6.449-9.568,11.25-12.15,4.798-2.579,12.119-5.428,21.96-8.55l8.64-2.88v-13.5c0-3.479-.692-6.148-2.07-8.01-1.381-1.859-3.032-2.79-4.95-2.79-1.682,0-3.15,.782-4.41,2.34-1.26,1.561-1.89,3.662-1.89,6.3v7.92h-30.6v-4.32c0-12.96,3.029-22.199,9.09-27.72,6.058-5.518,15.93-8.28,29.61-8.28,10.918,0,19.8,2.852,26.64,8.55,6.84,5.701,10.26,13.77,10.26,24.21v100.44h-31.32v-15.66c-1.561,5.4-4.05,9.602-7.47,12.6-3.42,3.001-7.47,4.5-12.15,4.5-10.201,0-17.19-3.389-20.97-10.17Zm38.52-17.28c1.018-1.98,1.53-4.41,1.53-7.29v-36.72c-4.68,1.8-8.131,4.081-10.35,6.84-2.222,2.762-3.33,6.601-3.33,11.52v16.92c0,7.802,2.34,11.7,7.02,11.7,2.399,0,4.109-.99,5.13-2.97Z"/><path d="M242.135,94.383h31.5v14.58c1.558-5.158,4.289-9.149,8.19-11.97,3.898-2.818,8.73-4.23,14.49-4.23v26.28c-4.441,0-9.332,.63-14.67,1.89-5.341,1.26-8.01,2.731-8.01,4.41v100.8h-31.5V94.383Z"/><path d="M302.975,186.723v-52.92c0-12.479,3.51-22.41,10.53-29.79s16.65-11.07,28.89-11.07,21.87,3.69,28.89,11.07,10.53,17.311,10.53,29.79v52.92c0,27.242-13.14,40.86-39.42,40.86s-39.42-13.618-39.42-40.86Zm45,13.86c1.198-1.8,1.8-4.258,1.8-7.38v-64.44c0-7.678-2.461-11.52-7.38-11.52s-7.38,3.842-7.38,11.52v64.44c0,3.122,.599,5.58,1.8,7.38,1.198,1.8,3.06,2.7,5.58,2.7s4.379-.9,5.58-2.7Z"/><path d="M393.513,226.143V70.623h32.04V226.143h-32.04Z"/><path d="M437.971,85.562v-21.96h31.5v21.96h-31.5Zm0,140.58V94.383h31.5V226.143h-31.5Z"/><path d="M481.89,94.383h31.5v16.74c1.319-5.4,3.6-9.779,6.84-13.14,3.24-3.358,7.56-5.04,12.96-5.04,8.879,0,15.449,2.731,19.71,8.19,4.258,5.461,6.39,13.23,6.39,23.31v101.7h-30.96V127.683c0-2.88-.571-5.338-1.71-7.38-1.142-2.039-2.911-3.06-5.31-3.06-3.24,0-5.372,1.471-6.39,4.41-1.021,2.942-1.53,6.871-1.53,11.79v92.7h-31.5V94.383Z"/><path d="M579.449,216.422c-5.881-7.439-8.82-18.54-8.82-33.3v-52.92c0-12.119,3.479-21.358,10.44-27.72,6.958-6.359,16.678-9.54,29.16-9.54,25.318,0,37.98,12.42,37.98,37.26v9.54c0,9.602-.121,17.401-.36,23.4h-45.72v25.56c0,4.562,.478,8.131,1.44,10.71,.959,2.582,2.998,3.87,6.12,3.87,2.399,0,4.109-.72,5.13-2.16,1.018-1.44,1.62-3.088,1.8-4.95,.18-1.859,.27-4.59,.27-8.19v-12.78h31.32v7.56c0,15.362-2.97,26.671-8.91,33.93-5.94,7.262-16.172,10.89-30.69,10.89-13.562,0-23.282-3.718-29.16-11.16Zm37.44-68.94v-16.92c0-9.478-2.34-14.22-7.02-14.22-5.282,0-7.92,4.742-7.92,14.22v16.92h14.94Z"/></g><g><path d="M73.138,553.617v-154.62h31.86l14.22,73.979v-73.979h29.88v154.62h-30.24l-15.48-77.4v77.4h-30.24Z"/><path d="M162.056,413.037v-21.96h31.5v21.96h-31.5Zm0,140.58v-131.76h31.5v131.76h-31.5Z"/><path d="M213.715,543.896c-5.881-7.438-8.82-18.539-8.82-33.299v-52.92c0-12.119,3.479-21.359,10.44-27.721,6.958-6.359,16.678-9.54,29.16-9.54,25.318,0,37.98,12.42,37.98,37.261v9.539c0,9.602-.121,17.401-.36,23.4h-45.72v25.561c0,4.562,.478,8.131,1.44,10.709,.959,2.582,2.998,3.871,6.12,3.871,2.399,0,4.109-.721,5.13-2.16,1.018-1.44,1.62-3.088,1.8-4.951,.18-1.858,.27-4.59,.27-8.189v-12.779h31.32v7.56c0,15.362-2.97,26.671-8.91,33.93-5.94,7.263-16.172,10.89-30.69,10.89-13.562,0-23.282-3.718-29.16-11.16Zm37.44-68.939v-16.92c0-9.479-2.34-14.22-7.02-14.22-5.282,0-7.92,4.741-7.92,14.22v16.92h14.94Z"/><path d="M293.813,553.617v-155.52h32.04v155.52h-32.04Z"/><path d="M335.57,515.457l.18-10.439h31.5l.18,15.479c0,3.122,.599,5.49,1.8,7.11,1.198,1.619,3.178,2.43,5.94,2.43,4.199,0,6.3-3.42,6.3-10.26,0-5.04-.99-9-2.97-11.881-1.98-2.879-5.13-5.939-9.45-9.18l-16.74-12.959c-5.76-4.439-9.9-9.029-12.42-13.771-2.52-4.739-3.78-11.431-3.78-20.07,0-6.719,1.769-12.448,5.31-17.19,3.538-4.739,8.249-8.308,14.13-10.71,5.878-2.399,12.42-3.6,19.62-3.6,25.56,0,38.34,12.721,38.34,38.16v2.521h-32.58v-5.041c0-3.119-.512-5.787-1.53-8.01-1.021-2.219-2.731-3.33-5.13-3.33-2.16,0-3.811,.631-4.95,1.891-1.142,1.26-1.71,2.97-1.71,5.13,0,4.801,1.859,8.522,5.58,11.159l19.44,14.221c6.958,5.161,12.299,10.771,16.02,16.83,3.718,6.061,5.58,13.711,5.58,22.949,0,12.24-3.482,21.662-10.44,28.261-6.961,6.601-16.681,9.899-29.16,9.899-26.041,0-39.06-13.199-39.06-39.6Z"/><path d="M431.689,543.896c-5.881-7.438-8.82-18.539-8.82-33.299v-52.92c0-12.119,3.479-21.359,10.44-27.721,6.958-6.359,16.678-9.54,29.16-9.54,25.318,0,37.98,12.42,37.98,37.261v9.539c0,9.602-.121,17.401-.36,23.4h-45.72v25.561c0,4.562,.478,8.131,1.44,10.709,.959,2.582,2.998,3.871,6.12,3.871,2.399,0,4.109-.721,5.13-2.16,1.018-1.44,1.62-3.088,1.8-4.951,.18-1.858,.27-4.59,.27-8.189v-12.779h31.32v7.56c0,15.362-2.97,26.671-8.91,33.93-5.94,7.263-16.172,10.89-30.69,10.89-13.562,0-23.282-3.718-29.16-11.16Zm37.44-68.939v-16.92c0-9.479-2.34-14.22-7.02-14.22-5.282,0-7.92,4.741-7.92,14.22v16.92h14.94Z"/><path d="M511.787,421.857h31.5v16.74c1.319-5.4,3.6-9.779,6.84-13.14,3.24-3.358,7.56-5.04,12.96-5.04,8.879,0,15.449,2.731,19.71,8.19,4.258,5.461,6.39,13.23,6.39,23.31v101.7h-30.96v-98.46c0-2.88-.571-5.339-1.71-7.38-1.142-2.039-2.911-3.061-5.31-3.061-3.24,0-5.372,1.471-6.39,4.41-1.021,2.941-1.53,6.871-1.53,11.79v92.7h-31.5v-131.76Z"/></g><g><path d="M156.464,277.52c0,.393-.125,.786-.375,1.179s-.525,.589-.825,.589c-2.7,.3-4.792,.709-6.275,1.226-1.484,.517-2.592,1.193-3.325,2.026-.733,.834-1.4,2.585-2,5.254l-11.232,47.094c-.334,1.431-.501,2.562-.501,3.396,0,1.502,.666,2.619,2,3.353,1.333,.734,3.634,1.302,6.901,1.702,.333,.067,.5,.35,.5,.85s-.117,.942-.35,1.325c-.233,.383-.517,.575-.85,.575-2.3,0-5.134-.1-8.502-.3-2.875-.2-5.147-.3-6.818-.3s-3.756,.1-6.256,.3c-2.8,.2-5.234,.3-7.3,.3-.333,0-.5-.3-.5-.9,0-.433,.117-.842,.35-1.225,.233-.383,.517-.591,.85-.625,2.266-.267,4.058-.65,5.375-1.15,1.316-.5,2.325-1.183,3.025-2.05,.7-.866,1.35-2.616,1.95-5.25l5.236-22.3h-33.446l-5.237,22.3c-.399,1.3-.599,2.434-.599,3.4,0,1.734,.549,2.917,1.649,3.55,1.099,.633,3.116,1.133,6.049,1.5,.333,.034,.5,.317,.5,.85,0,.5-.125,.942-.375,1.325s-.525,.575-.825,.575c-2.333,0-4.933-.1-7.797-.3-2.495-.2-4.59-.3-6.286-.3-1.664,0-3.945,.1-6.845,.3-3.233,.2-5.883,.3-7.95,.3-.333,0-.5-.3-.5-.9,0-.433,.125-.842,.375-1.225,.25-.383,.525-.591,.825-.625,2.667-.3,4.741-.7,6.225-1.201,1.483-.5,2.591-1.176,3.325-2.027,.733-.851,1.417-2.591,2.05-5.223l11.232-47.094c.334-1.467,.501-2.602,.501-3.402,0-1.5-.659-2.626-1.976-3.377-1.317-.75-3.626-1.326-6.926-1.727-.333,0-.5-.262-.5-.786,0-.491,.116-.941,.35-1.35,.232-.409,.516-.614,.85-.614,2.3,0,5.134,.1,8.502,.3,2.873,.2,5.146,.3,6.816,.3s3.756-.1,6.256-.3c2.8-.2,5.25-.3,7.35-.3,.333,0,.5,.328,.5,.982,0,.393-.133,.786-.4,1.179-.267,.393-.534,.589-.8,.589-2.268,.234-4.059,.61-5.375,1.127-1.317,.517-2.325,1.219-3.025,2.103-.7,.885-1.367,2.646-2,5.284l-5.136,21.586h33.446l5.136-21.586c.398-1.301,.599-2.437,.599-3.405,0-1.736-.55-2.93-1.649-3.582-1.1-.65-3.116-1.16-6.049-1.527-.333,0-.5-.262-.5-.786,0-.491,.125-.941,.375-1.35s.525-.614,.825-.614c2.333,0,4.932,.1,7.797,.3,2.495,.2,4.59,.3,6.288,.3s3.995-.1,6.895-.3c3.167-.2,5.767-.3,7.8-.3,.4,0,.6,.328,.6,.982Z"/><path d="M183.755,316.888c0,4.767-1.25,9.567-3.75,14.4-2.5,4.834-5.734,8.775-9.7,11.825-3.967,3.05-7.884,4.575-11.75,4.575-3.267,0-6.067-1.459-8.4-4.375-2.333-2.917-3.5-6.558-3.5-10.925,0-4.766,1.241-9.566,3.725-14.4,2.482-4.833,5.7-8.792,9.65-11.875,3.95-3.083,7.858-4.625,11.725-4.625,3.266,0,6.083,1.467,8.45,4.4,2.367,2.934,3.55,6.6,3.55,11Zm-8.2-6.5c0-2.167-.275-3.641-.825-4.425-.55-.783-1.542-1.175-2.975-1.175-2.234,0-4.742,1.834-7.525,5.5-2.783,3.667-5.059,8.125-6.825,13.375-1.767,5.25-2.65,10.292-2.65,15.125,0,2.2,.283,3.7,.85,4.5,.566,.8,1.583,1.2,3.05,1.2,2.2,0,4.683-1.825,7.45-5.475,2.767-3.65,5.033-8.108,6.8-13.375,1.766-5.266,2.65-10.35,2.65-15.25Z"/><path d="M221.23,274.138c0,.634-.2,1.5-.6,2.6l-21.784,56.35c-1.267,3.367-1.9,5.3-1.9,5.8,0,1,.366,1.5,1.1,1.5,1.43,0,3.671-1.966,6.725-5.9,1.294-1.667,2.074-2.5,2.34-2.5,.431,0,.812,.208,1.145,.625,.332,.417,.499,.792,.499,1.125,0,.534-1.175,2.192-3.525,4.975-2.35,2.784-4.625,4.975-6.825,6.575-2.2,1.6-4.067,2.4-5.6,2.4-3.533,0-5.3-1.768-5.3-5.3,0-1.667,.466-3.8,1.4-6.4l18.2-47.55c.733-1.933,1.1-3.433,1.1-4.5,0-1.3-1.4-2.117-4.2-2.45-.534-.066-.8-.483-.8-1.25,0-.8,.266-1.2,.8-1.2,2.133-.4,4.702-1.15,7.708-2.25,3.005-1.1,5.277-2.116,6.813-3.05,.768-.466,1.336-.7,1.704-.7,.667,0,1.001,.367,1.001,1.1Z"/><path d="M283.453,307.888c0,1.734-.434,3.467-1.3,5.2l-10.9,22.1c-1.2,2.4-1.8,4.1-1.8,5.1,0,.667,.333,1,1,1,1.066,0,3.25-1.916,6.55-5.75,1.766-2.033,2.783-3.05,3.05-3.05,.433,0,.792,.184,1.075,.55,.283,.367,.425,.75,.425,1.15,0,.467-1.283,2.059-3.849,4.775-2.565,2.717-4.981,4.85-7.247,6.4s-4.165,2.325-5.697,2.325c-3.233,0-4.85-1.4-4.85-4.2,0-1.833,.75-4.333,2.25-7.5l10.795-22c.733-1.366,1.099-2.6,1.099-3.7,0-1.6-.899-2.4-2.696-2.4-1.598,0-3.828,1.708-6.69,5.125-2.862,3.417-8.07,11.042-15.625,22.875l-4.032,8.5c-.768,1.4-2.336,2.1-4.705,2.1-2.837,0-4.255-.534-4.255-1.6,0-.167,.05-.333,.15-.5l14.5-30.4c.667-1.333,1-2.5,1-3.5,0-1.733-.934-2.6-2.799-2.6-1.9,0-4.315,1.717-7.248,5.15-2.933,3.434-8.082,11.05-15.447,22.85l-3.887,8.5c-.602,1.4-2.171,2.1-4.709,2.1-2.839,0-4.259-.534-4.259-1.6,0-.167,.05-.333,.15-.5l14.1-30.4c1.066-2.533,1.6-4.167,1.6-4.9,0-.8-.333-1.2-1-1.2-1.167,0-3.483,2.1-6.95,6.3-1.367,1.667-2.15,2.5-2.35,2.5-.434,0-.809-.183-1.125-.55-.317-.366-.475-.75-.475-1.15,0-.5,1.234-2.1,3.705-4.8,2.47-2.7,4.824-4.825,7.06-6.375,2.236-1.55,4.122-2.325,5.658-2.325,3.336,0,5.004,1.5,5.004,4.5,0,1.8-.667,4.167-2,7.1l-2.226,4.8c2.801-4.833,6.043-8.775,9.729-11.825,3.685-3.05,7.145-4.575,10.379-4.575,2.067,0,3.66,.592,4.777,1.775,1.117,1.184,1.676,2.792,1.676,4.825,0,1.633-.384,3.3-1.15,5l-1.975,4.1c3.029-4.933,6.216-8.783,9.562-11.55,3.345-2.766,6.532-4.15,9.562-4.15,2.03,0,3.603,.583,4.719,1.75,1.115,1.167,1.672,2.717,1.672,4.65Z"/></g><g><path d="M1236.769,623.27h40.86c12.358,0,21.178,3.991,26.46,11.97,5.279,7.982,7.92,19.651,7.92,35.011s-2.34,26.94-7.021,34.739c-4.68,7.803-13.08,11.7-25.199,11.7h-12.601v61.2h-30.42v-154.62Zm32.22,65.521c3.719,0,6.449-.689,8.19-2.07,1.738-1.378,2.88-3.358,3.42-5.94,.54-2.579,.811-6.269,.811-11.069,0-6.48-.721-11.16-2.16-14.04-1.44-2.88-4.32-4.32-8.641-4.32h-3.42v37.44h1.8Z"/><path d="M1320.105,738.47v-52.92c0-12.479,3.511-22.41,10.53-29.79s16.65-11.07,28.89-11.07,21.87,3.69,28.891,11.07c7.02,7.38,10.529,17.311,10.529,29.79v52.92c0,27.242-13.14,40.86-39.42,40.86s-39.42-13.618-39.42-40.86Zm45,13.86c1.198-1.801,1.8-4.259,1.8-7.381v-64.439c0-7.679-2.461-11.521-7.38-11.521s-7.38,3.842-7.38,11.521v64.439c0,3.122,.6,5.58,1.8,7.381,1.198,1.8,3.061,2.699,5.58,2.699s4.38-.899,5.58-2.699Z"/><path d="M1410.645,646.13h31.5v14.58c1.559-5.158,4.289-9.149,8.19-11.971,3.897-2.817,8.729-4.229,14.49-4.229v26.28c-4.441,0-9.332,.63-14.671,1.89-5.341,1.26-8.01,2.73-8.01,4.41v100.8h-31.5v-131.76Z"/><path d="M1482.644,774.109c-3.122-3.479-4.68-9.059-4.68-16.739v-82.261h-8.82v-23.939h8.82v-27.9h30.6v27.9h9v23.939h-9v73.98c0,2.28,.181,3.96,.54,5.04,.36,1.08,1.319,1.62,2.88,1.62,1.198,0,2.34-.06,3.42-.181,1.08-.118,1.801-.18,2.16-.18v21.6c-1.8,.481-4.41,.99-7.83,1.53s-6.75,.811-9.989,.811c-8.28,0-13.981-1.738-17.101-5.221Z"/><path d="M1530.342,675.83h-5.58l.181-23.94h5.399v-9c0-14.158,7.079-21.24,21.24-21.24,6.719,0,12.119,.841,16.2,2.521v19.439c-1.201-.359-2.16-.54-2.88-.54-1.682,0-2.762,.603-3.24,1.801-.48,1.2-.72,3-.72,5.399v1.62h6.84v24.3h-6.12v101.7h-31.32v-102.06Z"/><path d="M1576.782,738.47v-52.92c0-12.479,3.511-22.41,10.53-29.79s16.65-11.07,28.89-11.07,21.87,3.69,28.891,11.07c7.02,7.38,10.529,17.311,10.529,29.79v52.92c0,27.242-13.14,40.86-39.42,40.86s-39.42-13.618-39.42-40.86Zm45,13.86c1.198-1.801,1.8-4.259,1.8-7.381v-64.439c0-7.679-2.461-11.521-7.38-11.521s-7.38,3.842-7.38,11.521v64.439c0,3.122,.6,5.58,1.8,7.381,1.198,1.8,3.061,2.699,5.58,2.699s4.38-.899,5.58-2.699Z"/><path d="M1667.321,777.89v-155.52h32.04v155.52h-32.04Z"/><path d="M1711.778,637.31v-21.96h31.5v21.96h-31.5Zm0,140.58v-131.76h31.5v131.76h-31.5Z"/><path d="M1754.618,738.47v-52.92c0-12.479,3.511-22.41,10.53-29.79s16.65-11.07,28.89-11.07,21.87,3.69,28.891,11.07c7.02,7.38,10.529,17.311,10.529,29.79v52.92c0,27.242-13.14,40.86-39.42,40.86s-39.42-13.618-39.42-40.86Zm45,13.86c1.198-1.801,1.8-4.259,1.8-7.381v-64.439c0-7.679-2.461-11.521-7.38-11.521s-7.38,3.842-7.38,11.521v64.439c0,3.122,.6,5.58,1.8,7.381,1.198,1.8,3.061,2.699,5.58,2.699s4.38-.899,5.58-2.699Z"/></g></svg>