<?xml version="1.0" encoding="UTF-8"?><svg id="a" xmlns="http://www.w3.org/2000/svg" width="120" height="120" viewBox="0 0 120 120"><defs><style>.b{fill:#efece7;}</style></defs><g><rect x="11" y="28.5" width="98" height="63.333"/><path class="b" d="M106,31.5v57.333H14V31.5H106m4.002-6H9.998c-1.103,0-1.998,.894-1.998,1.998V92.836c0,1.103,.894,1.998,1.998,1.998H110.002c1.103,0,1.998-.894,1.998-1.998V27.498c0-1.103-.894-1.998-1.998-1.998h0Z"/></g><g><path d="M59.573,70.499L14.788,28.506l89.627-.006-44.788,41.997-.028,.003h-.025Z"/><path class="b" d="M96.829,31.5l-15.134,14.191-22.097,20.719-22.097-20.719-15.134-14.191H96.829m9.127-6H13.24c-2.337,0-3.574,2.315-2.017,3.775l22.175,20.793,24.183,22.676c.538,.504,1.278,.756,2.017,.756s1.48-.252,2.017-.756l24.183-22.676,22.175-20.793c1.557-1.46,.32-3.775-2.017-3.775h0Z"/></g></svg>